<?xml version="1.0" encoding="utf-8"?>
<!-- Generator: Adobe Illustrator 16.0.0, SVG Export Plug-In . SVG Version: 6.00 Build 0)  -->
<!DOCTYPE svg PUBLIC "-//W3C//DTD SVG 1.1//EN" "http://www.w3.org/Graphics/SVG/1.1/DTD/svg11.dtd">
<svg version="1.1" id="Calque_1" xmlns="http://www.w3.org/2000/svg" xmlns:xlink="http://www.w3.org/1999/xlink" x="0px" y="0px"
	 width="1000px" height="1000px" viewBox="0 0 120 120" xml:space="preserve">
<g id="Calque_4">
	<g>
		<path fill="#000000" d="M107.955,42.905c0,0-0.373,0.106-1.073,0.305c-0.688,0.204-1.76,0.411-3.006,0.837
			c-0.617,0.196-1.302,0.412-2.046,0.647c-0.732,0.271-1.523,0.562-2.371,0.875c-0.844,0.288-1.716,0.69-2.631,1.08
			c-0.921,0.368-1.863,0.829-2.836,1.31c-1.956,0.928-3.996,2.085-6.105,3.342c-1.041,0.66-2.117,1.323-3.188,2.038
			c-1.048,0.769-2.169,1.443-3.229,2.275c-2.181,1.554-4.316,3.335-6.494,5.125c-2.131,1.854-4.281,3.76-6.341,5.776
			c-1.021,1.006-2.094,2.006-3.056,3.032l-1.537,1.595c-0.477,0.506-0.95,1.01-1.423,1.51c-0.916,1.052-1.871,2.078-2.741,3.125
			c-0.905,1.031-1.696,2.109-2.531,3.14c-1.601,2.101-3.002,4.218-4.25,6.298c-0.607,1.046-1.193,2.076-1.698,3.105
			c-0.565,1.009-0.977,2.039-1.444,3.016c-0.45,0.98-0.798,1.957-1.193,2.877c-0.337,0.944-0.658,1.84-0.958,2.682
			c-0.271,0.856-0.51,1.668-0.765,2.42c-0.214,0.764-0.411,1.465-0.588,2.099c-0.38,1.274-0.604,2.302-0.79,3.002
			c-0.191,0.704-0.292,1.079-0.292,1.079s-0.083-0.379-0.238-1.09c-0.115-0.711-0.409-1.766-0.53-3.119
			c-0.081-0.678-0.168-1.434-0.229-2.26c-0.046-0.825-0.06-1.721-0.09-2.688c0.006-0.962,0.075-1.984,0.118-3.077
			c0.114-1.077,0.231-2.224,0.419-3.411c0.402-2.371,1.029-4.933,1.975-7.556c0.973-2.604,2.195-5.3,3.739-7.905
			c0.771-1.299,1.592-2.605,2.496-3.856c0.868-1.29,1.833-2.501,2.819-3.73c0.514-0.608,1.031-1.221,1.548-1.833
			c0.52-0.63,1.012-1.13,1.53-1.695C60,62.088,61.109,61,62.227,59.878c2.291-2.168,4.681-4.245,7.172-6.123
			c1.258-0.926,2.5-1.848,3.802-2.665c0.646-0.414,1.284-0.826,1.922-1.235c0.646-0.395,1.313-0.75,1.961-1.121
			c1.286-0.751,2.619-1.395,3.91-2.022c1.317-0.585,2.603-1.165,3.889-1.645c2.582-0.947,5.071-1.696,7.425-2.157
			c1.178-0.224,2.289-0.464,3.381-0.556c1.088-0.105,2.092-0.27,3.069-0.262c0.972-0.016,1.858-0.07,2.697-0.039
			c0.847,0.049,1.612,0.094,2.299,0.154c0.343,0.03,0.666,0.049,0.965,0.085c0.296,0.053,0.573,0.104,0.832,0.15
			c0.517,0.094,0.956,0.174,1.312,0.239C107.574,42.828,107.955,42.905,107.955,42.905z"/>
	</g>
	<g>
		<path fill="#000000" d="M12.149,77.146c0,0,0.374-0.106,1.074-0.306c0.687-0.204,1.759-0.411,3.005-0.838
			c0.618-0.194,1.301-0.412,2.046-0.647c0.732-0.271,1.525-0.562,2.371-0.875c0.844-0.287,1.715-0.689,2.631-1.078
			c0.92-0.368,1.863-0.829,2.835-1.311c1.956-0.928,3.996-2.085,6.106-3.342c1.042-0.66,2.116-1.323,3.188-2.038
			c1.047-0.769,2.168-1.442,3.229-2.274c2.181-1.555,4.318-3.334,6.494-5.125c2.131-1.854,4.283-3.759,6.342-5.776
			c1.021-1.006,2.093-2.007,3.055-3.033l1.538-1.595c0.476-0.505,0.95-1.008,1.422-1.509c0.916-1.051,1.871-2.078,2.741-3.125
			c0.906-1.032,1.696-2.11,2.531-3.139c1.603-2.1,3.003-4.218,4.251-6.298c0.607-1.046,1.193-2.076,1.698-3.105
			c0.563-1.009,0.978-2.04,1.444-3.016c0.449-0.982,0.798-1.958,1.191-2.877C71.68,24.896,72,24,72.301,23.159
			c0.271-0.856,0.512-1.668,0.766-2.42c0.213-0.764,0.41-1.465,0.588-2.098c0.38-1.275,0.604-2.301,0.791-3.001
			c0.189-0.704,0.291-1.08,0.291-1.08s0.084,0.379,0.238,1.089c0.115,0.712,0.408,1.766,0.529,3.12
			c0.08,0.678,0.168,1.434,0.229,2.259c0.047,0.826,0.061,1.721,0.09,2.687c-0.006,0.962-0.073,1.985-0.116,3.077
			c-0.114,1.078-0.231,2.224-0.419,3.413c-0.402,2.37-1.029,4.931-1.977,7.554c-0.973,2.604-2.194,5.3-3.738,7.907
			c-0.771,1.297-1.592,2.605-2.495,3.855c-0.868,1.29-1.833,2.501-2.82,3.731c-0.514,0.608-1.03,1.22-1.548,1.833
			c-0.521,0.629-1.012,1.129-1.529,1.695c-1.077,1.184-2.187,2.271-3.303,3.393c-2.29,2.167-4.679,4.245-7.17,6.123
			c-1.258,0.927-2.5,1.849-3.802,2.664c-0.645,0.415-1.286,0.827-1.922,1.235c-0.647,0.396-1.314,0.75-1.961,1.121
			c-1.286,0.752-2.619,1.396-3.909,2.021c-1.319,0.586-2.604,1.165-3.89,1.645c-2.582,0.947-5.071,1.697-7.423,2.158
			c-1.178,0.223-2.29,0.463-3.382,0.555c-1.086,0.105-2.092,0.271-3.068,0.263c-0.971,0.017-1.859,0.069-2.697,0.039
			c-0.847-0.05-1.613-0.095-2.299-0.154c-0.342-0.03-0.666-0.048-0.965-0.085c-0.296-0.053-0.574-0.104-0.832-0.15
			c-0.517-0.094-0.956-0.174-1.312-0.238C12.53,77.225,12.149,77.146,12.149,77.146z"/>
	</g>
</g>
<g id="Calque_2">
	<circle fill="#000000" cx="8.689" cy="22.17" r="7.689"/>
	<circle fill="#000000" cx="53.541" cy="22.17" r="7.688"/>
	<path fill="#000000" d="M106.082,22.17c0,4.247-3.441,7.689-7.689,7.689c-4.246,0-7.688-3.442-7.688-7.689
		c0-4.249,3.441-7.689,7.688-7.689C102.641,14.48,106.082,17.921,106.082,22.17z"/>
	<circle fill="#000000" cx="21.607" cy="97.831" r="7.688"/>
	<circle fill="#000000" cx="66.459" cy="97.831" r="7.688"/>
	<path fill="#000000" d="M119,97.831c0,4.247-3.441,7.688-7.691,7.688c-4.244,0-7.688-3.441-7.688-7.688
		c0-4.248,3.443-7.69,7.688-7.69C115.559,90.141,119,93.583,119,97.831z"/>
</g>

</svg>
